<?xml version="1.0" encoding="iso-8859-1"?>
<!-- Uploaded to: SVG Repo, www.svgrepo.com, Generator: SVG Repo Mixer Tools -->
<svg fill="#000000" height="800px" width="800px" version="1.1" id="Layer_1" xmlns="http://www.w3.org/2000/svg" xmlns:xlink="http://www.w3.org/1999/xlink" 
	 viewBox="0 0 512 512" xml:space="preserve">
<g>
	<g>
		<g>
			<path d="M209.438,335.531c9.942,18.195,21.917,30.141,34.567,34.776V248.965h-56.402
				C189.09,281.829,196.698,312.217,209.438,335.531z"/>
			<path d="M267.818,248.965L267.818,248.965v121.342c12.65-4.635,24.626-16.581,34.567-34.776
				c12.738-23.315,20.348-53.703,21.834-86.566H267.818z"/>
			<path d="M209.438,138.588c-12.738,23.313-20.348,53.702-21.835,86.565h56.402V103.811
				C231.354,108.446,219.38,120.392,209.438,138.588z"/>
			<path d="M316.566,116.001c17.952,26.61,29.701,65.143,31.505,109.152h42.737C386.624,177.352,357.507,136.596,316.566,116.001z"
				/>
			<path d="M302.385,138.588c-9.943-18.196-21.917-30.142-34.567-34.777v121.341h56.401
				C322.732,192.289,315.123,161.901,302.385,138.588z"/>
			<path d="M316.566,358.119c40.939-20.595,70.058-61.352,74.242-109.153h-42.737C346.267,292.974,334.518,331.508,316.566,358.119z
				"/>
			<path d="M449.513,373.904C559.353,219.207,449.691,0,255.911,0C125.196,0,18.851,106.344,18.851,237.059
				c0,172.145,177.565,285.705,332.799,216.925l110.132,56.039c14.048,7.143,30.037-6.229,25.08-21.449L449.513,373.904z
				 M255.911,396.297c-87.805,0-159.239-71.433-159.239-159.239c0-87.805,71.435-159.239,159.239-159.239
				S415.15,149.253,415.15,237.058C415.15,324.864,343.716,396.297,255.911,396.297z"/>
			<path d="M121.013,248.965L121.013,248.965c4.184,47.801,33.303,88.557,74.242,109.153
				c-17.952-26.61-29.701-65.145-31.505-109.153H121.013z"/>
			<path d="M195.257,116.001c-40.941,20.595-70.058,61.351-74.242,109.152h42.737C165.555,181.144,177.303,142.611,195.257,116.001z
				"/>
		</g>
	</g>
</g>
</svg>