<svg xmlns="http://www.w3.org/2000/svg" width="750" height="450"><path fill="#24248f" d="M0 0h750v450H0z"/><circle fill="#fff" cx="375" cy="225" r="75"/><g fill="#1e9d44"><path d="M310.174 187.573c24.32.084 47.76 11.828 62.08 33.048L375 225c-27.6 0-51.74-14.942-64.826-37.427z"/><path d="M375 225c-13.953 24-38.97 37.373-64.826 37.428l2.307-3.713 1.393-1.98 1.476-2.044.588-.787.746-.914 2.125-2.528 1.437-1.58 2.686-2.752.53-.503.67-.6 3.28-2.894c2.805-2.323 5.782-4.444 8.947-6.303l1.8-1.1 3.54-1.843 2.638-1.272 3.4-1.416 3.078-1.127 3.364-1.07 3.432-.883 3.3-.742 3.983-.608 2.486-.334.785-.08L375 225z"/><path d="M375 225c13.83 24.218 12.858 52.607-.003 74.848-12.884-22.294-13.844-50.695.003-74.848z"/><path d="M382.028 225.366l1.27.13 6.83 1.05 6.472 1.672 1.817.588 4.766 1.75 1.834.766 4.607 2.224 1.413.73.25.135 5.17 3.145.562.35 4.978 3.726.828.688 1.545 1.352 2.653 2.413.102.096 2.44 2.506 1.87 2.058 2.608 3.144 1.424 1.905 1.827 2.558 1.817 2.922.498.803.212.35C413.9 262.32 389.003 249.002 375 225l7.028.366z"/><path d="M439.826 187.573c-12.25 21.048-34.185 35.487-59.672 37.246L375 225c13.936-23.958 38.907-37.34 64.826-37.427z"/><path d="M372.735 154.377l2.265-4.23c12.887 22.3 13.847 50.7 0 74.853-9.493-16.624-12.012-35.213-8.503-52.42l.012-.065.883-3.702.236-.986 1.415-4.596 1.704-4.488 1.988-4.367z"/></g><g fill="#ffd701"><path d="M310.088 112.568C303.648 123.57 300 136.363 300 150c0 13.688 3.675 26.525 10.13 37.5l-.043.07c-12.73-.102-25.683 3.134-37.538 9.978-11.8 6.82-21.065 16.374-27.373 27.452-12.998-22.402-13.957-50.962-.08-75s39.092-37.488 64.992-37.432z"/><path d="M245.175 225c6.308 11.078 15.563 20.633 27.373 27.452 11.855 6.844 24.8 10.08 37.543 9.978l.038.07C303.675 273.475 300 286.312 300 300c0 13.637 3.648 26.43 10.088 37.432-25.9.056-51.114-13.394-64.992-37.432s-12.92-52.598.08-75z"/><path d="M375.077 299.996c6.3 11.082 15.565 20.637 27.375 27.456s24.712 10.056 37.46 9.98C427 359.9 402.756 375 375 375s-52-15.1-64.912-37.568c12.748.076 25.65-3.16 37.46-9.98s21.065-16.374 27.375-27.456L375 300l.077-.004z"/><path d="M504.825 225c12.998 22.402 13.957 50.962.08 75s-39.092 37.488-64.992 37.432C446.352 326.43 450 313.637 450 300c0-13.688-3.675-26.525-10.13-37.5l.038-.07c12.734.102 25.688-3.134 37.543-9.978 11.8-6.82 21.065-16.374 27.373-27.452z"/><path d="M439.912 112.568c25.9-.056 51.114 13.394 64.992 37.432s12.92 52.598-.08 75c-6.308-11.078-15.563-20.633-27.373-27.452-11.855-6.844-24.8-10.08-37.538-9.978l-.043-.07C446.325 176.525 450 163.688 450 150c0-13.637-3.648-26.43-10.088-37.432z"/><path d="M310.088 112.568C323 90.1 347.244 75 375 75s52 15.1 64.912 37.568c-12.748-.076-25.65 3.16-37.46 9.98s-21.065 16.374-27.375 27.456L375 150l-.077.004c-6.3-11.082-15.565-20.637-27.375-27.456s-24.712-10.056-37.46-9.98z"/></g></svg>